<?xml version="1.0" standalone="no"?>
<!DOCTYPE svg PUBLIC "-//W3C//DTD SVG 20010904//EN"
 "http://www.w3.org/TR/2001/REC-SVG-20010904/DTD/svg10.dtd">
<svg version="1.0" xmlns="http://www.w3.org/2000/svg"
 width="500.000000pt" height="500.000000pt" viewBox="0 0 500.000000 500.000000"
 preserveAspectRatio="xMidYMid meet">
<metadata>
Created by potrace 1.14, written by Peter Selinger 2001-2017
</metadata>
<g transform="translate(0.000000,500.000000) scale(0.100000,-0.100000)"
fill="#000000" stroke="none">
<path d="M2507 4484 c-1 -1 -47 -4 -102 -8 -55 -3 -111 -8 -125 -10 -73 -12
-210 -41 -257 -55 -17 -5 -34 -7 -37 -3 -3 3 -6 0 -6 -7 0 -7 -5 -9 -10 -6 -6
4 -17 1 -25 -5 -8 -7 -15 -9 -15 -5 0 4 -7 2 -15 -5 -8 -7 -15 -10 -15 -7 0 6
-124 -41 -198 -74 -26 -12 -49 -21 -51 -20 -2 2 -7 -1 -10 -6 -3 -4 -24 -17
-46 -28 -22 -11 -44 -23 -50 -27 -5 -5 -46 -32 -90 -61 -130 -87 -158 -107
-149 -107 5 0 -6 -8 -23 -16 -18 -9 -30 -20 -27 -25 3 -5 0 -9 -6 -9 -6 0 -51
-39 -99 -87 -74 -74 -110 -115 -198 -228 -5 -5 -17 -23 -27 -40 -11 -16 -27
-38 -37 -48 -20 -22 -132 -223 -129 -233 1 -4 -2 -10 -7 -13 -12 -8 -101 -245
-109 -289 -7 -36 -28 -120 -37 -145 -5 -15 -7 -30 -4 -34 4 -3 2 -14 -4 -24
-5 -10 -11 -33 -14 -51 -28 -219 -25 -479 6 -618 6 -25 13 -55 15 -67 2 -13 6
-33 8 -45 2 -13 12 -50 21 -83 49 -176 59 -205 67 -205 4 0 8 -7 8 -16 0 -21
84 -196 126 -262 19 -29 34 -56 34 -61 0 -4 9 -16 20 -26 11 -10 20 -23 20
-29 0 -7 9 -18 19 -26 11 -7 18 -17 16 -20 -3 -4 7 -18 20 -30 14 -13 25 -28
25 -33 0 -25 283 -305 325 -320 8 -4 15 -11 15 -17 0 -5 7 -10 15 -10 9 0 18
-7 21 -15 4 -8 12 -15 20 -15 8 0 14 -4 14 -10 0 -5 7 -10 15 -10 8 0 15 -4
15 -8 0 -4 15 -16 33 -27 17 -10 48 -28 67 -40 19 -12 40 -23 45 -25 6 -1 21
-10 35 -20 30 -21 201 -97 225 -100 3 0 26 -10 51 -21 26 -11 49 -17 52 -15 2
3 14 0 25 -6 19 -10 98 -30 161 -42 14 -3 34 -7 44 -10 25 -8 57 -13 166 -26
96 -12 389 -9 451 5 17 4 44 8 60 10 17 2 39 6 50 9 11 3 49 12 85 20 149 34
344 100 378 129 8 7 18 12 21 11 13 -2 41 9 41 15 0 4 6 8 13 8 6 0 32 13 57
29 25 15 47 29 50 29 10 2 146 92 162 108 8 9 18 13 22 10 3 -4 6 -2 6 4 0 5
19 24 43 41 23 17 66 54 96 81 30 28 58 51 63 51 4 0 8 5 8 11 0 7 8 19 18 28
25 21 102 110 127 145 11 15 36 49 55 75 19 25 40 55 47 66 7 11 28 46 47 78
20 32 36 63 36 68 0 5 5 9 10 9 6 0 9 3 8 8 -1 4 17 47 40 95 23 49 40 93 37
98 -4 5 -2 9 3 9 4 0 21 42 36 92 16 51 32 98 37 104 5 6 6 13 4 16 -5 5 0 31
19 108 10 39 16 69 22 115 3 28 8 61 11 75 5 33 5 369 -1 396 -2 12 -7 45 -11
74 -4 29 -9 62 -11 74 -3 12 -7 32 -10 46 -3 14 -12 52 -21 85 -8 33 -16 67
-17 75 -6 45 -58 184 -107 286 -16 33 -29 66 -29 72 0 7 -4 12 -8 12 -5 0 -16
18 -26 40 -10 22 -22 40 -28 40 -5 0 -8 6 -5 14 3 8 3 16 -1 18 -4 2 -34 41
-66 88 -33 47 -64 88 -70 92 -6 4 -8 8 -5 8 15 0 -174 199 -261 275 -59 51
-160 125 -171 125 -5 0 -8 4 -5 9 3 5 -6 12 -19 15 -16 4 -23 11 -19 18 4 6 3
8 -3 5 -5 -3 -26 5 -45 18 -31 21 -214 118 -228 121 -3 0 -18 6 -35 14 -65 27
-237 80 -246 75 -5 -4 -9 -1 -9 5 0 6 -6 10 -12 9 -7 -2 -33 4 -58 11 -25 7
-49 13 -53 12 -5 -2 -25 2 -45 7 -34 9 -66 14 -182 27 -42 5 -180 11 -183 8z
m163 -189 c118 -7 151 -13 271 -41 36 -8 72 -16 80 -18 7 -2 22 -6 32 -9 21
-9 45 -16 55 -18 15 -3 103 -39 169 -70 37 -18 70 -33 73 -33 3 -1 10 -4 15
-8 6 -3 33 -18 60 -33 28 -15 64 -38 82 -51 17 -13 34 -24 38 -24 8 0 88 -62
97 -75 4 -5 12 -10 17 -10 5 0 21 -12 35 -27 14 -16 28 -28 31 -28 8 0 143
-140 174 -180 14 -19 36 -44 49 -56 12 -12 22 -26 22 -32 0 -6 6 -15 13 -19
13 -8 112 -162 112 -175 0 -4 8 -17 18 -28 9 -11 17 -22 17 -24 0 -2 11 -29
25 -60 14 -31 24 -57 23 -59 -1 -1 5 -15 14 -32 50 -90 105 -302 125 -480 9
-73 8 -333 0 -395 -17 -118 -22 -145 -42 -225 -9 -33 -18 -71 -21 -84 -16 -77
-140 -358 -171 -389 -7 -7 -13 -17 -13 -22 0 -8 -78 -130 -89 -140 -3 -3 -19
-22 -35 -43 -15 -21 -41 -52 -57 -68 -15 -16 -26 -29 -23 -29 6 0 -57 -63
-144 -142 -29 -26 -52 -45 -52 -42 0 3 -10 -6 -22 -18 -37 -39 -257 -181 -274
-177 -4 0 -10 -3 -13 -8 -6 -9 -161 -83 -183 -87 -7 -2 -26 -8 -41 -14 -15 -7
-40 -15 -55 -18 -15 -3 -34 -8 -42 -11 -18 -8 -15 -7 -69 -22 -23 -7 -49 -10
-56 -7 -7 2 -17 0 -22 -5 -10 -10 -32 -14 -117 -24 -21 -2 -57 -7 -79 -10 -49
-8 -277 -8 -332 -1 -22 2 -56 7 -75 11 -19 3 -48 7 -65 10 -46 7 -74 13 -155
35 -41 12 -81 22 -87 22 -7 1 -13 4 -13 8 0 3 -8 6 -17 7 -10 1 -40 11 -68 23
-27 12 -59 24 -70 26 -11 2 -21 8 -23 14 -2 5 -8 10 -14 10 -16 0 -132 61
-140 74 -4 6 -8 8 -8 3 0 -6 -92 49 -125 76 -5 4 -32 25 -60 45 -104 77 -215
185 -300 292 -33 41 -64 78 -70 82 -7 5 -7 8 0 8 6 0 5 4 -1 8 -23 14 -168
267 -180 312 0 3 -11 26 -23 53 -12 26 -20 51 -16 56 3 5 1 11 -4 13 -9 3 -58
155 -67 208 -4 24 -14 77 -20 110 -24 121 -24 435 0 555 2 11 7 40 12 65 9 51
11 59 13 63 2 1 4 12 7 25 9 47 11 57 17 72 3 8 18 51 33 95 15 43 34 95 42
115 9 19 15 38 14 43 -1 4 2 7 8 7 5 0 10 9 10 20 0 11 4 20 9 20 5 0 15 16
21 35 6 19 16 35 22 35 6 0 8 3 5 6 -4 4 3 20 14 35 11 16 18 29 15 29 -3 0 1
8 9 18 9 9 43 55 76 101 97 134 221 264 334 348 105 79 125 93 134 93 6 0 11
4 11 9 0 5 10 13 23 17 12 4 24 10 27 13 15 19 286 146 327 153 10 2 21 6 24
11 3 4 20 9 37 10 18 1 32 5 32 9 0 5 65 20 85 19 2 0 19 5 37 10 18 6 49 12
68 15 19 3 46 8 60 10 14 2 77 7 140 10 63 4 116 8 118 9 2 2 11 1 20 -1 9 -1
55 -5 102 -9z"/>
<path d="M1356 3438 c-11 -6 -30 -22 -41 -34 -12 -13 -25 -21 -28 -19 -4 3 -5
2 -2 -2 3 -3 0 -12 -6 -19 -14 -17 -20 -94 -8 -94 6 0 8 -4 5 -9 -3 -5 4 -40
15 -78 12 -37 23 -75 24 -83 2 -8 4 -16 5 -17 2 -2 3 -6 4 -10 6 -32 61 -191
69 -200 5 -7 7 -13 3 -13 -3 0 3 -22 13 -49 10 -28 16 -52 13 -55 -3 -4 0 -6
6 -6 7 0 11 -3 10 -7 -3 -7 15 -71 30 -113 3 -8 6 -18 7 -22 2 -5 3 -9 5 -10
1 -2 3 -10 5 -18 2 -8 13 -42 25 -75 11 -33 22 -64 23 -70 1 -5 6 -16 10 -22
5 -7 6 -13 2 -13 -3 0 1 -13 10 -30 8 -16 15 -33 15 -37 0 -5 21 -73 46 -153
26 -80 47 -149 48 -155 0 -5 3 -12 6 -15 6 -5 31 -82 36 -110 2 -8 7 -23 13
-35 5 -11 35 -100 66 -197 44 -139 61 -180 78 -189 12 -7 25 -17 29 -23 8 -12
168 -13 453 -3 517 20 468 20 493 -3 15 -14 22 -33 23 -58 1 -65 16 -125 29
-117 5 3 11 1 15 -5 6 -10 73 -7 137 6 36 7 42 30 40 150 -3 95 -1 101 20 112
22 12 77 17 283 27 50 2 142 7 205 10 99 6 134 9 218 17 16 2 49 47 49 68 1 8
3 29 7 45 3 17 9 57 12 90 3 33 8 63 10 66 2 3 6 32 10 64 3 32 8 68 10 79 3
12 7 41 11 66 3 25 7 47 8 48 5 6 -18 66 -29 77 -37 35 -20 34 -723 35 -124 0
-114 -16 -128 215 -6 115 -15 258 -20 330 -2 28 -7 102 -11 165 -8 144 -12
210 -20 330 -3 52 -6 102 -7 110 -1 33 -28 45 -101 42 -92 -3 -103 -5 -125
-24 -22 -19 -22 -12 15 -653 3 -49 6 -106 7 -126 2 -36 -8 -55 -28 -54 -18 2
-85 47 -85 58 0 6 -3 8 -6 4 -4 -3 -12 -1 -20 6 -34 30 -44 37 -44 30 0 -4 -4
-3 -8 3 -8 12 -198 144 -208 144 -3 0 -12 6 -19 13 -34 30 -43 35 -49 30 -3
-4 -6 -1 -6 5 0 7 -6 12 -13 12 -7 0 -24 10 -37 23 -14 12 -27 22 -30 22 -9 1
-95 58 -101 67 -3 5 -8 8 -10 6 -4 -3 -148 89 -159 102 -3 3 -22 14 -42 25
-21 11 -38 23 -38 27 0 5 -6 8 -14 8 -8 0 -16 3 -18 8 -1 4 -32 25 -68 46 -36
22 -67 42 -70 45 -10 12 -90 61 -98 61 -5 0 -17 9 -27 20 -10 11 -24 20 -32
20 -7 0 -13 5 -13 10 0 6 -7 10 -15 10 -8 0 -15 4 -15 8 0 5 -12 15 -27 23
-16 7 -39 21 -52 31 -27 21 -48 22 -75 6z m474 -648 c0 -5 7 -10 16 -10 8 0
32 -11 52 -25 20 -14 42 -25 49 -25 7 0 13 -4 13 -8 0 -4 22 -19 50 -33 27
-13 50 -28 50 -32 0 -5 5 -5 10 -2 6 3 10 1 10 -5 0 -6 5 -8 10 -5 6 3 10 2
10 -4 0 -6 11 -13 25 -17 14 -3 25 -10 25 -15 0 -5 6 -9 14 -9 7 0 19 -7 26
-15 7 -8 16 -13 20 -10 4 3 13 -2 20 -10 7 -8 19 -15 26 -15 8 0 14 -4 14 -10
0 -5 4 -10 8 -10 8 0 88 -44 246 -135 166 -96 230 -131 255 -144 15 -7 33 -27
39 -45 9 -26 27 -360 23 -434 -1 -33 -17 -59 -39 -64 -11 -3 -156 -5 -322 -4
l-304 1 -24 49 c-13 26 -25 53 -26 60 -1 6 -7 25 -13 41 -6 17 -23 64 -38 105
-15 41 -29 82 -32 90 -4 8 -7 17 -8 20 -1 3 -5 12 -8 20 -11 26 -58 154 -60
165 -2 6 -6 16 -10 23 -5 6 -6 16 -3 21 4 5 3 11 -2 13 -4 1 -21 39 -36 83
-15 44 -32 89 -37 100 -4 11 -18 47 -29 80 -12 33 -25 69 -30 80 -14 34 -21
58 -29 103 -8 40 -7 42 15 42 13 0 24 -4 24 -10z m1875 -744 l27 -7 -6 -117
c-7 -152 -13 -180 -40 -188 -17 -6 -526 -9 -533 -3 -2 1 -8 2 -14 3 -28 3 -37
39 -38 162 -1 84 2 124 9 124 6 0 8 4 5 10 -3 5 4 12 17 15 51 12 526 13 573
1z"/>
</g>
</svg>
